<svg width="3140" height="1678" xmlns="http://www.w3.org/2000/svg" xmlns:xlink="http://www.w3.org/1999/xlink" xml:space="preserve" overflow="hidden"><g transform="translate(-91 -91)"><g><rect x="98.5002" y="152.5" width="3126" height="1608" stroke="#90CBFA" stroke-width="9.16667" stroke-linecap="butt" stroke-linejoin="round" stroke-miterlimit="10" stroke-opacity="1" fill="none"/><rect x="367" y="95.9999" width="851" height="111" fill="#F4F4F4" fill-opacity="1"/><text fill="#0C47A2" fill-opacity="1" font-family="Figtree,Figtree_MSFontService,sans-serif" font-style="normal" font-variant="normal" font-weight="400" font-stretch="normal" font-size="64" text-anchor="start" direction="ltr" writing-mode="lr-tb" unicode-bidi="normal" text-decoration="none" transform="matrix(1 0 0 1 399.667 174)">Outer loop: Workflow level</text><path d="M310 372.334C310 355.029 324.029 341 341.334 341L726.666 341C743.971 341 758 355.029 758 372.334L758 497.666C758 514.971 743.971 529 726.666 529L341.334 529C324.029 529 310 514.971 310 497.666Z" fill="#E3F3FD" fill-rule="evenodd" fill-opacity="1"/><text fill="#0C47A2" fill-opacity="1" font-family="Figtree,Figtree_MSFontService,sans-serif" font-style="normal" font-variant="normal" font-weight="400" font-stretch="normal" font-size="55" text-anchor="start" direction="ltr" writing-mode="lr-tb" unicode-bidi="normal" text-decoration="none" transform="matrix(1 0 0 1 476.381 421)">Compose </text><text fill="#0C47A2" fill-opacity="1" font-family="Figtree,Figtree_MSFontService,sans-serif" font-style="normal" font-variant="normal" font-weight="400" font-stretch="normal" font-size="55" text-anchor="start" direction="ltr" writing-mode="lr-tb" unicode-bidi="normal" text-decoration="none" transform="matrix(1 0 0 1 538.829 487)">Agents</text><path d="M1047 372.334C1047 355.029 1061.03 341 1078.33 341L1463.67 341C1480.97 341 1495 355.029 1495 372.334L1495 497.666C1495 514.971 1480.97 529 1463.67 529L1078.33 529C1061.03 529 1047 514.971 1047 497.666Z" fill="#E3F3FD" fill-rule="evenodd" fill-opacity="1"/><text fill="#0C47A2" fill-opacity="1" font-family="Figtree,Figtree_MSFontService,sans-serif" font-style="normal" font-variant="normal" font-weight="400" font-stretch="normal" font-size="55" text-anchor="start" direction="ltr" writing-mode="lr-tb" unicode-bidi="normal" text-decoration="none" transform="matrix(1 0 0 1 1356.04 421)">Run </text><text fill="#0C47A2" fill-opacity="1" font-family="Figtree,Figtree_MSFontService,sans-serif" font-style="normal" font-variant="normal" font-weight="400" font-stretch="normal" font-size="55" text-anchor="start" direction="ltr" writing-mode="lr-tb" unicode-bidi="normal" text-decoration="none" transform="matrix(1 0 0 1 1215.1 487)">Workflow</text><path d="M1784 372.334C1784 355.029 1798.03 341 1815.33 341L2200.67 341C2217.97 341 2232 355.029 2232 372.334L2232 497.666C2232 514.971 2217.97 529 2200.67 529L1815.33 529C1798.03 529 1784 514.971 1784 497.666Z" fill="#E3F3FD" fill-rule="evenodd" fill-opacity="1"/><text fill="#0C47A2" fill-opacity="1" font-family="Figtree,Figtree_MSFontService,sans-serif" font-style="normal" font-variant="normal" font-weight="400" font-stretch="normal" font-size="55" text-anchor="start" direction="ltr" writing-mode="lr-tb" unicode-bidi="normal" text-decoration="none" transform="matrix(1 0 0 1 2052.93 421)">Trace </text><text fill="#0C47A2" fill-opacity="1" font-family="Figtree,Figtree_MSFontService,sans-serif" font-style="normal" font-variant="normal" font-weight="400" font-stretch="normal" font-size="55" text-anchor="start" direction="ltr" writing-mode="lr-tb" unicode-bidi="normal" text-decoration="none" transform="matrix(1 0 0 1 1943.51 487)">Execution</text><path d="M2521 372.334C2521 355.029 2535.03 341 2552.33 341L2937.67 341C2954.97 341 2969 355.029 2969 372.334L2969 497.666C2969 514.971 2954.97 529 2937.67 529L2552.33 529C2535.03 529 2521 514.971 2521 497.666Z" fill="#E3F3FD" fill-rule="evenodd" fill-opacity="1"/><text fill="#0C47A2" fill-opacity="1" font-family="Figtree,Figtree_MSFontService,sans-serif" font-style="normal" font-variant="normal" font-weight="400" font-stretch="normal" font-size="55" text-anchor="start" direction="ltr" writing-mode="lr-tb" unicode-bidi="normal" text-decoration="none" transform="matrix(1 0 0 1 2757.28 421)">Locate </text><text fill="#0C47A2" fill-opacity="1" font-family="Figtree,Figtree_MSFontService,sans-serif" font-style="normal" font-variant="normal" font-weight="400" font-stretch="normal" font-size="55" text-anchor="start" direction="ltr" writing-mode="lr-tb" unicode-bidi="normal" text-decoration="none" transform="matrix(1 0 0 1 2804.83 487)">Fault</text><path d="M758.5 432.063 1041.36 432.063 1041.36 438.938 758.5 438.938ZM1015.59 416.489 1048.18 435.5 1015.59 454.511C1013.95 455.468 1011.85 454.914 1010.89 453.274 1009.94 451.634 1010.49 449.529 1012.13 448.573L1039.63 432.531 1039.63 438.47 1012.13 422.428C1010.49 421.471 1009.94 419.366 1010.89 417.727 1011.85 416.087 1013.95 415.533 1015.59 416.489Z" fill="#90CBFA" fill-rule="nonzero" fill-opacity="1"/><path d="M1495.5 432.063 1778.36 432.063 1778.36 438.938 1495.5 438.938ZM1752.59 416.489 1785.18 435.5 1752.59 454.511C1750.95 455.468 1748.85 454.914 1747.89 453.274 1746.94 451.634 1747.49 449.529 1749.13 448.573L1776.63 432.531 1776.63 438.47 1749.13 422.428C1747.49 421.471 1746.94 419.366 1747.89 417.727 1748.85 416.087 1750.95 415.533 1752.59 416.489Z" fill="#90CBFA" fill-rule="nonzero" fill-opacity="1"/><path d="M2232.5 432.063 2515.36 432.063 2515.36 438.938 2232.5 438.938ZM2489.59 416.489 2522.18 435.5 2489.59 454.511C2487.95 455.468 2485.85 454.914 2484.89 453.274 2483.94 451.634 2484.49 449.529 2486.13 448.573L2513.63 432.531 2513.63 438.47 2486.13 422.428C2484.49 421.471 2483.94 419.366 2484.89 417.727 2485.85 416.087 2487.95 415.533 2489.59 416.489Z" fill="#90CBFA" fill-rule="nonzero" fill-opacity="1"/><path d="M2750.94 527.5 2750.94 715.111C2750.94 717.009 2749.4 718.548 2747.5 718.548L536.5 718.548C534.601 718.548 533.062 717.009 533.062 715.111L533.062 538.89 539.937 538.89 539.937 715.111 536.5 711.673 2747.5 711.673 2744.06 715.111 2744.06 527.5ZM517.489 564.658 536.5 532.068 555.511 564.658C556.467 566.298 555.914 568.403 554.274 569.359 552.634 570.316 550.529 569.762 549.572 568.122L533.531 540.622 539.469 540.622 523.427 568.122C522.471 569.762 520.366 570.316 518.726 569.359 517.086 568.403 516.532 566.298 517.489 564.658Z" fill="#90CBFA" fill-rule="nonzero" fill-opacity="1"/><path d="M1346 717.5C1346 682.43 1374.43 654 1409.5 654L1701.5 654C1736.57 654 1765 682.43 1765 717.5 1765 752.57 1736.57 781 1701.5 781L1409.5 781C1374.43 781 1346 752.57 1346 717.5Z" fill="#E7F5EA" fill-rule="evenodd" fill-opacity="1"/><text fill="#127232" fill-opacity="1" font-family="Figtree SemiBold,Figtree SemiBold_MSFontService,sans-serif" font-style="normal" font-variant="normal" font-weight="600" font-stretch="normal" font-size="46" text-anchor="start" direction="ltr" writing-mode="lr-tb" unicode-bidi="normal" text-decoration="none" transform="matrix(1 0 0 1 1475.2 734)">On success</text><rect x="196.5" y="962.5" width="2930" height="726" stroke="#DBDCE1" stroke-width="9.16667" stroke-linecap="butt" stroke-linejoin="round" stroke-miterlimit="10" stroke-opacity="1" fill="none"/><rect x="367" y="912" width="922" height="111" fill="#F4F4F4" fill-opacity="1"/><text fill="#8A8D97" fill-opacity="1" font-family="Figtree,Figtree_MSFontService,sans-serif" font-style="normal" font-variant="normal" font-weight="400" font-stretch="normal" font-size="64" text-anchor="start" direction="ltr" writing-mode="lr-tb" unicode-bidi="normal" text-decoration="none" transform="matrix(1 0 0 1 399.667 989)">Inner loop: Single Agent level</text><path d="M310 1131.33C310 1114.03 324.029 1100 341.334 1100L726.666 1100C743.971 1100 758 1114.03 758 1131.33L758 1256.67C758 1273.97 743.971 1288 726.666 1288L341.334 1288C324.029 1288 310 1273.97 310 1256.67Z" fill="#F8F9FA" fill-rule="evenodd" fill-opacity="1"/><text fill="#1F2124" fill-opacity="1" font-family="Figtree,Figtree_MSFontService,sans-serif" font-style="normal" font-variant="normal" font-weight="400" font-stretch="normal" font-size="55" text-anchor="start" direction="ltr" writing-mode="lr-tb" unicode-bidi="normal" text-decoration="none" transform="matrix(1 0 0 1 545.131 1180)">Author </text><text fill="#1F2124" fill-opacity="1" font-family="Figtree,Figtree_MSFontService,sans-serif" font-style="normal" font-variant="normal" font-weight="400" font-stretch="normal" font-size="55" text-anchor="start" direction="ltr" writing-mode="lr-tb" unicode-bidi="normal" text-decoration="none" transform="matrix(1 0 0 1 532.527 1246)">Prompt</text><path d="M1047 1131.33C1047 1114.03 1061.03 1100 1078.33 1100L1463.67 1100C1480.97 1100 1495 1114.03 1495 1131.33L1495 1256.67C1495 1273.97 1480.97 1288 1463.67 1288L1078.33 1288C1061.03 1288 1047 1273.97 1047 1256.67Z" fill="#F8F9FA" fill-rule="evenodd" fill-opacity="1"/><text fill="#1F2124" fill-opacity="1" font-family="Figtree,Figtree_MSFontService,sans-serif" font-style="normal" font-variant="normal" font-weight="400" font-stretch="normal" font-size="55" text-anchor="start" direction="ltr" writing-mode="lr-tb" unicode-bidi="normal" text-decoration="none" transform="matrix(1 0 0 1 1252.34 1180)">Execute </text><text fill="#1F2124" fill-opacity="1" font-family="Figtree,Figtree_MSFontService,sans-serif" font-style="normal" font-variant="normal" font-weight="400" font-stretch="normal" font-size="55" text-anchor="start" direction="ltr" writing-mode="lr-tb" unicode-bidi="normal" text-decoration="none" transform="matrix(1 0 0 1 1301.61 1246)">Agent</text><path d="M1784 1131.33C1784 1114.03 1798.03 1100 1815.33 1100L2200.67 1100C2217.97 1100 2232 1114.03 2232 1131.33L2232 1256.67C2232 1273.97 2217.97 1288 2200.67 1288L1815.33 1288C1798.03 1288 1784 1273.97 1784 1256.67Z" fill="#F8F9FA" fill-rule="evenodd" fill-opacity="1"/><text fill="#1F2124" fill-opacity="1" font-family="Figtree,Figtree_MSFontService,sans-serif" font-style="normal" font-variant="normal" font-weight="400" font-stretch="normal" font-size="55" text-anchor="start" direction="ltr" writing-mode="lr-tb" unicode-bidi="normal" text-decoration="none" transform="matrix(1 0 0 1 1982.46 1180)">Observe </text><text fill="#1F2124" fill-opacity="1" font-family="Figtree,Figtree_MSFontService,sans-serif" font-style="normal" font-variant="normal" font-weight="400" font-stretch="normal" font-size="55" text-anchor="start" direction="ltr" writing-mode="lr-tb" unicode-bidi="normal" text-decoration="none" transform="matrix(1 0 0 1 1985.33 1246)">Outputs</text><path d="M2521 1131.33C2521 1114.03 2535.03 1100 2552.33 1100L2937.67 1100C2954.97 1100 2969 1114.03 2969 1131.33L2969 1256.67C2969 1273.97 2954.97 1288 2937.67 1288L2552.33 1288C2535.03 1288 2521 1273.97 2521 1256.67Z" fill="#F8F9FA" fill-rule="evenodd" fill-opacity="1"/><text fill="#1F2124" fill-opacity="1" font-family="Figtree,Figtree_MSFontService,sans-serif" font-style="normal" font-variant="normal" font-weight="400" font-stretch="normal" font-size="55" text-anchor="start" direction="ltr" writing-mode="lr-tb" unicode-bidi="normal" text-decoration="none" transform="matrix(1 0 0 1 2715.45 1213)">Evaluate</text><path d="M758.5 1191.06 1041.36 1191.06 1041.36 1197.94 758.5 1197.94ZM1015.59 1175.49 1048.18 1194.5 1015.59 1213.51C1013.95 1214.47 1011.85 1213.91 1010.89 1212.27 1009.94 1210.63 1010.49 1208.53 1012.13 1207.57L1039.63 1191.53 1039.63 1197.47 1012.13 1181.43C1010.49 1180.47 1009.94 1178.37 1010.89 1176.73 1011.85 1175.09 1013.95 1174.53 1015.59 1175.49Z" fill="#DBDCE1" fill-rule="nonzero" fill-opacity="1"/><path d="M1495.5 1191.06 1778.36 1191.06 1778.36 1197.94 1495.5 1197.94ZM1752.59 1175.49 1785.18 1194.5 1752.59 1213.51C1750.95 1214.47 1748.85 1213.91 1747.89 1212.27 1746.94 1210.63 1747.49 1208.53 1749.13 1207.57L1776.63 1191.53 1776.63 1197.47 1749.13 1181.43C1747.49 1180.47 1746.94 1178.37 1747.89 1176.73 1748.85 1175.09 1750.95 1174.53 1752.59 1175.49Z" fill="#DBDCE1" fill-rule="nonzero" fill-opacity="1"/><path d="M2232.5 1191.06 2515.36 1191.06 2515.36 1197.94 2232.5 1197.94ZM2489.59 1175.49 2522.18 1194.5 2489.59 1213.51C2487.95 1214.47 2485.85 1213.91 2484.89 1212.27 2483.94 1210.63 2484.49 1208.53 2486.13 1207.57L2513.63 1191.53 2513.63 1197.47 2486.13 1181.43C2484.49 1180.47 2483.94 1178.37 2484.89 1176.73 2485.85 1175.09 2487.95 1174.53 2489.59 1175.49Z" fill="#DBDCE1" fill-rule="nonzero" fill-opacity="1"/><path d="M2750.94 531.5 2750.94 949.221 2744.06 949.221 2744.06 531.5ZM2766.51 923.453 2747.5 956.043 2728.49 923.453 2728.49 923.453C2727.53 921.813 2728.09 919.708 2729.73 918.752 2731.37 917.795 2733.47 918.349 2734.43 919.989L2734.43 919.989 2750.47 947.489 2744.53 947.489 2760.57 919.989C2761.53 918.349 2763.63 917.795 2765.27 918.752 2766.91 919.708 2767.47 921.813 2766.51 923.453Z" fill="#90CBFA" fill-rule="nonzero" fill-opacity="1"/><path d="M2521 811.5C2521 776.43 2549.43 748 2584.5 748L2855.5 748C2890.57 748 2919 776.43 2919 811.5 2919 846.57 2890.57 875 2855.5 875L2584.5 875C2549.43 875 2521 846.57 2521 811.5Z" fill="#FF9B9B" fill-rule="evenodd" fill-opacity="1"/><text fill="#C00000" fill-opacity="1" font-family="Figtree SemiBold,Figtree SemiBold_MSFontService,sans-serif" font-style="normal" font-variant="normal" font-weight="600" font-stretch="normal" font-size="46" text-anchor="start" direction="ltr" writing-mode="lr-tb" unicode-bidi="normal" text-decoration="none" transform="matrix(1 0 0 1 2662.43 828)">On failure</text><path d="M1346 1457.5C1346 1440.1 1360.1 1426 1377.5 1426L1761.5 1426C1778.9 1426 1793 1440.1 1793 1457.5L1793 1583.5C1793 1600.9 1778.9 1615 1761.5 1615L1377.5 1615C1360.1 1615 1346 1600.9 1346 1583.5Z" fill="#F8F9FA" fill-rule="evenodd" fill-opacity="1"/><text fill="#1F2124" fill-opacity="1" font-family="Figtree,Figtree_MSFontService,sans-serif" font-style="normal" font-variant="normal" font-weight="400" font-stretch="normal" font-size="55" text-anchor="start" direction="ltr" writing-mode="lr-tb" unicode-bidi="normal" text-decoration="none" transform="matrix(1 0 0 1 1592.96 1506)">Refine </text><text fill="#1F2124" fill-opacity="1" font-family="Figtree,Figtree_MSFontService,sans-serif" font-style="normal" font-variant="normal" font-weight="400" font-stretch="normal" font-size="55" text-anchor="start" direction="ltr" writing-mode="lr-tb" unicode-bidi="normal" text-decoration="none" transform="matrix(1 0 0 1 1567.75 1572)">Prompt</text><path d="M6.80641-3.4375 232.07-3.4375C233.968-3.4375 235.507-1.89848 235.507 0L235.507 811.557 228.632 811.557 228.632 0 232.07 3.4375 6.80641 3.4375ZM32.5742 19.0109-0.0159316 0 32.5742-19.0109C34.2141-19.9675 36.3189-19.4136 37.2755-17.7737 38.2321-16.1339 37.6782-14.029 36.0383-13.0724L8.53831 2.96924 8.53831-2.96924 36.0383 13.0724C37.6782 14.029 38.2321 16.1339 37.2755 17.7737 36.3189 19.4136 34.2141 19.9675 32.5742 19.0109Z" fill="#DBDCE1" fill-rule="nonzero" fill-opacity="1" transform="matrix(1.83697e-16 1 1 -1.83697e-16 534.5 1288.5)"/><path d="M2749.05 1288.5 2749.05 1520.57C2749.05 1522.47 2747.51 1524.01 2745.61 1524.01L1800.3 1524.01 1800.3 1517.13 2745.61 1517.13 2742.17 1520.57 2742.17 1288.5ZM1826.07 1539.58 1793.48 1520.57 1826.07 1501.56C1827.71 1500.6 1829.82 1501.16 1830.78 1502.8 1831.73 1504.44 1831.18 1506.54 1829.54 1507.5L1802.04 1523.54 1802.04 1517.6 1829.54 1533.64C1831.18 1534.6 1831.73 1536.7 1830.78 1538.34 1829.82 1539.98 1827.71 1540.54 1826.07 1539.58Z" fill="#DBDCE1" fill-rule="nonzero" fill-opacity="1"/><path d="M430.545 438.056 430.545 420.379C430.545 418.851 429.538 417.497 428.081 417.045L382.962 403.153C381.747 402.771 380.394 403.118 379.492 404.022L376.021 407.494C375.118 408.397 374.772 409.752 375.153 410.967L389.036 456.116C389.487 457.574 390.841 458.581 392.368 458.581L410.033 458.581 419.439 467.993C420.133 468.687 421.001 469 421.903 469 422.805 469 423.673 468.653 424.367 467.993L439.985 452.365C441.336 451.015 441.339 448.825 439.99 447.473 439.989 447.471 439.987 447.47 439.985 447.468L430.58 438.056ZM421.868 460.63 413.921 452.677C413.265 452.027 412.379 451.665 411.456 451.67L394.936 451.67 384.385 417.323 399.587 432.534C399.448 433.09 399.344 433.68 399.344 434.306 399.344 438.126 402.467 441.251 406.285 441.251 410.103 441.251 413.226 438.126 413.226 434.306 413.226 430.485 410.103 427.36 406.285 427.36 405.66 427.36 405.07 427.464 404.515 427.603L389.314 412.391 423.638 422.949 423.638 439.48C423.638 440.418 424.02 441.286 424.645 441.946L432.592 449.899Z" fill="#0D47A1" fill-rule="evenodd" fill-opacity="1"/><path d="M1114.82 456.558C1115.91 457.16 1117.24 457.146 1118.32 456.523L1153.29 435.956C1154.34 435.339 1155 434.208 1155 433.008 1155 431.808 1154.37 430.677 1153.29 430.06L1118.32 409.492C1117.23 408.849 1115.88 408.835 1114.78 409.458 1113.7 410.075 1113 411.206 1113 412.44L1113 453.576C1113 454.81 1113.66 455.941 1114.78 456.558ZM1120.03 418.508 1144.72 433.008 1120.03 447.508Z" fill="#0D47A1" fill-rule="evenodd" fill-opacity="1"/><path d="M1889.7 431.6 1852.3 431.6C1847.61 431.6 1843.8 427.795 1843.8 423.1 1843.8 418.406 1847.61 414.6 1852.3 414.6L1864.2 414.6 1864.2 421.4 1877.8 411.2 1864.2 401 1864.2 407.8 1852.3 407.8C1843.87 407.8 1837 414.668 1837 423.1 1837 431.532 1843.87 438.4 1852.3 438.4L1889.7 438.4C1894.39 438.4 1898.2 442.205 1898.2 446.9 1898.2 451.594 1894.39 455.4 1889.7 455.4L1856.79 455.4C1855.36 451.328 1851.52 448.602 1847.2 448.6 1841.59 448.6 1837 453.19 1837 458.8 1837 464.41 1841.59 469 1847.2 469 1851.62 469 1855.36 466.144 1856.79 462.2L1889.7 462.2C1898.13 462.2 1905 455.332 1905 446.9 1905 438.468 1898.13 431.6 1889.7 431.6M1847.2 462.2C1845.33 462.2 1843.8 460.67 1843.8 458.8 1843.8 456.93 1845.33 455.4 1847.2 455.4 1849.07 455.4 1850.6 456.93 1850.6 458.8 1850.6 460.67 1849.07 462.2 1847.2 462.2M1894.8 401C1889.19 401 1884.6 405.59 1884.6 411.2 1884.6 416.81 1889.19 421.4 1894.8 421.4 1900.41 421.4 1905 416.81 1905 411.2 1905 405.59 1900.41 401 1894.8 401M1894.8 414.6C1892.93 414.6 1891.4 413.07 1891.4 411.2 1891.4 409.33 1892.93 407.8 1894.8 407.8 1896.67 407.8 1898.2 409.33 1898.2 411.2 1898.2 413.07 1896.67 414.6 1894.8 414.6" fill="#0D47A1" fill-rule="evenodd" fill-opacity="1"/><path d="M2629.8 444.509 2620.17 439.9C2624.02 435.53 2626.15 429.905 2626.16 424.078 2626.16 410.801 2615.36 400 2602.08 400 2588.8 400 2578 410.801 2578 424.078 2578 437.355 2588.8 448.156 2602.08 448.156 2608.13 448.156 2613.67 445.886 2617.9 442.171L2622.51 451.802 2639.71 469 2647 461.708ZM2602.08 441.276C2592.58 441.276 2584.88 433.571 2584.88 424.078 2584.88 414.584 2592.58 406.879 2602.08 406.879 2611.57 406.879 2619.28 414.584 2619.28 424.078 2619.28 433.571 2611.57 441.276 2602.08 441.276" fill="#0D47A1" fill-rule="evenodd" fill-opacity="1"/><path d="M439.518 1160.61C438.59 1159.96 437.399 1159.82 436.345 1160.23 390.276 1177.93 379.448 1224.55 379 1226.52L385.724 1228C385.724 1228 386.966 1222.65 390.242 1215.16L403.069 1215.16C424 1215.16 441 1198.15 441 1177.21L441 1163.44C441 1162.3 440.449 1161.23 439.518 1160.61M434.104 1177.24C434.104 1194.36 420.173 1208.3 403.069 1208.3L393.552 1208.3C400.517 1195.05 412.966 1178.31 434.104 1168.62Z" fill="#202124" fill-rule="evenodd" fill-opacity="1"/><path d="M1114.82 1217.56C1115.91 1218.16 1117.24 1218.15 1118.32 1217.52L1153.29 1196.96C1154.34 1196.34 1155 1195.21 1155 1194.01 1155 1192.81 1154.37 1191.68 1153.29 1191.06L1118.32 1170.49C1117.23 1169.85 1115.88 1169.84 1114.78 1170.46 1113.7 1171.08 1113 1172.21 1113 1173.44L1113 1214.58C1113 1215.81 1113.66 1216.94 1114.78 1217.56ZM1120.03 1179.51 1144.72 1194.01 1120.03 1208.51Z" fill="#1F2124" fill-rule="evenodd" fill-opacity="1"/><path d="M1871 1184C1865.48 1184 1861 1188.7 1861 1194.5 1861 1200.3 1865.48 1205 1871 1205 1876.52 1205 1881 1200.3 1881 1194.5 1881 1188.7 1876.52 1184 1871 1184" fill="#202124" fill-rule="evenodd" fill-opacity="1"/><path d="M1871 1218C1896.94 1218 1904.75 1195.29 1904.82 1195.08 1905.06 1194.36 1905.06 1193.61 1904.82 1192.92 1904.75 1192.68 1896.94 1170 1871 1170 1845.06 1170 1837.25 1192.68 1837.18 1192.89 1836.94 1193.61 1836.94 1194.36 1837.18 1195.05 1837.25 1195.29 1845.06 1217.97 1871 1217.97ZM1871 1176.83C1889.19 1176.83 1896.22 1190.04 1897.96 1193.98 1896.26 1197.96 1889.19 1211.14 1871 1211.14 1852.81 1211.14 1845.78 1197.96 1844.04 1193.98 1845.74 1190 1852.81 1176.83 1871 1176.83" fill="#202124" fill-rule="evenodd" fill-opacity="1"/><path d="M2613 1177C2603.62 1177 2596 1184.62 2596 1194 2596 1203.38 2603.62 1211 2613 1211 2622.38 1211 2630 1203.38 2630 1194 2630 1184.62 2622.38 1177 2613 1177M2613 1204.2C2607.39 1204.2 2602.8 1199.61 2602.8 1194 2602.8 1188.39 2607.39 1183.8 2613 1183.8 2618.61 1183.8 2623.2 1188.39 2623.2 1194 2623.2 1199.61 2618.61 1204.2 2613 1204.2" fill="#202124" fill-rule="evenodd" fill-opacity="1"/><path d="M2637.93 1205.24C2636.55 1208.52 2634.55 1211.49 2632 1214.01 2629.48 1216.57 2626.52 1218.54 2623.24 1219.92 2616.55 1222.75 2608.86 1222.78 2602.14 1220.06 2601.97 1215.43 2598.21 1211.73 2593.55 1211.73 2588.9 1211.73 2584.93 1215.57 2584.93 1220.37 2584.93 1225.17 2588.76 1229 2593.55 1229 2595.93 1229 2598.07 1228.03 2599.66 1226.48 2603.76 1228.14 2608.07 1229 2612.52 1229 2616.97 1229 2621.69 1228.1 2625.93 1226.27 2630.03 1224.55 2633.72 1222.02 2636.9 1218.88 2640.07 1215.74 2642.55 1212.01 2644.28 1207.9 2646.07 1203.65 2647 1199.13 2647 1194.47L2640.1 1194.47C2640.1 1198.2 2639.38 1201.82 2637.93 1205.21ZM2587.1 1183.76C2588.48 1180.48 2590.48 1177.51 2593.03 1174.99 2595.55 1172.43 2598.52 1170.46 2601.79 1169.08 2608.48 1166.25 2616.17 1166.22 2622.9 1168.94 2623.07 1173.57 2626.83 1177.27 2631.48 1177.27 2636.14 1177.27 2640.1 1173.43 2640.1 1168.63 2640.1 1163.83 2636.28 1160 2631.48 1160 2629.1 1160 2626.93 1160.97 2625.38 1162.52 2617 1159.14 2607.41 1159.21 2599.07 1162.73 2594.97 1164.45 2591.28 1166.98 2588.1 1170.12 2584.93 1173.26 2582.45 1176.99 2580.72 1181.1 2578.92 1185.35 2578 1189.92 2578 1194.53L2584.9 1194.53C2584.9 1190.8 2585.62 1187.18 2587.07 1183.79Z" fill="#202124" fill-rule="evenodd" fill-opacity="1"/><path d="M1489.38 1507.07C1488.51 1505.04 1487.44 1503.07 1486.2 1501.2 1484.96 1499.37 1483.54 1497.65 1481.98 1496.09 1480.43 1494.54 1478.7 1493.12 1476.87 1491.88 1475.01 1490.64 1473.04 1489.57 1471 1488.7 1468.93 1487.8 1466.72 1487.15 1464.51 1486.7 1459.95 1485.77 1455.15 1485.77 1450.59 1486.7 1448.38 1487.15 1446.21 1487.84 1444.1 1488.7 1442.06 1489.57 1440.09 1490.64 1438.23 1491.88 1436.4 1493.12 1434.67 1494.54 1433.12 1496.09 1432.53 1496.68 1432.01 1497.3 1431.46 1497.89L1423 1489.43 1423 1510.15 1443.72 1510.15 1436.37 1502.79C1436.88 1502.17 1437.44 1501.55 1438.02 1500.99 1439.27 1499.75 1440.65 1498.61 1442.1 1497.61 1443.58 1496.61 1445.17 1495.75 1446.79 1495.06 1448.45 1494.36 1450.21 1493.81 1451.97 1493.43 1457.46 1492.31 1463.15 1492.87 1468.31 1495.06 1469.93 1495.75 1471.52 1496.61 1473.01 1497.61 1474.46 1498.61 1475.84 1499.75 1477.08 1500.99 1478.32 1502.24 1479.46 1503.62 1480.47 1505.07 1481.47 1506.55 1482.33 1508.14 1483.02 1509.77 1483.71 1511.42 1484.26 1513.18 1484.64 1514.94 1485.02 1516.78 1485.2 1518.64 1485.2 1520.5 1485.21 1524.19 1484.47 1527.85 1483.02 1531.24 1482.33 1532.87 1481.47 1534.45 1480.47 1535.94 1479.46 1537.39 1478.32 1538.77 1477.08 1540.01 1475.84 1541.26 1474.46 1542.4 1473.01 1543.4 1471.52 1544.4 1469.93 1545.26 1468.31 1545.95 1466.65 1546.64 1464.89 1547.2 1463.13 1547.58 1457.65 1548.7 1451.95 1548.14 1446.79 1545.95 1445.17 1545.26 1443.58 1544.4 1442.1 1543.4 1440.65 1542.4 1439.27 1541.26 1438.02 1540.01 1436.78 1538.77 1435.64 1537.39 1434.64 1535.94 1433.64 1534.45 1432.77 1532.87 1432.08 1531.24 1431.39 1529.59 1430.84 1527.82 1430.46 1526.06 1430.09 1524.23 1429.9 1522.37 1429.91 1520.5L1423 1520.5C1423 1522.85 1423.24 1525.2 1423.69 1527.45 1424.14 1529.66 1424.83 1531.83 1425.69 1533.94 1426.56 1535.97 1427.63 1537.94 1428.87 1539.81 1430.11 1541.64 1431.53 1543.36 1433.08 1544.92 1434.64 1546.47 1436.37 1547.89 1438.2 1549.13 1440.06 1550.37 1442.03 1551.44 1444.07 1552.31 1446.14 1553.2 1448.35 1553.86 1450.56 1554.31 1452.84 1554.76 1455.19 1555 1457.5 1555 1459.81 1555 1462.16 1554.76 1464.44 1554.31 1466.65 1553.86 1468.83 1553.17 1470.93 1552.31 1472.97 1551.44 1474.94 1550.37 1476.81 1549.13 1478.64 1547.89 1480.36 1546.47 1481.92 1544.92 1483.47 1543.36 1484.89 1541.64 1486.13 1539.81 1487.37 1537.94 1488.44 1535.97 1489.31 1533.94 1490.2 1531.86 1490.86 1529.66 1491.31 1527.45 1491.76 1525.17 1492 1522.85 1492 1520.5 1492 1518.16 1491.76 1515.81 1491.31 1513.56 1490.86 1511.35 1490.17 1509.18 1489.31 1507.07Z" fill="#202124" fill-rule="evenodd" fill-opacity="1"/><path d="M1416.5 752C1397.49 752 1382 736.51 1382 717.5 1382 698.49 1397.49 683 1416.5 683 1435.51 683 1451 698.49 1451 717.5 1451 736.51 1435.51 752 1416.5 752M1416.5 689.9C1401.29 689.9 1388.9 702.286 1388.9 717.5 1388.9 732.715 1401.29 745.1 1416.5 745.1 1431.71 745.1 1444.1 732.715 1444.1 717.5 1444.1 702.286 1431.71 689.9 1416.5 689.9" fill="#137333" fill-rule="evenodd" fill-opacity="1"/><path d="M1409.49 731.001C1408.61 731.001 1407.77 730.663 1407.1 730.021L1397 719.891 1401.75 715.13 1409.45 722.863 1427.26 705 1432 709.761 1411.81 730.021C1411.13 730.696 1410.29 731.001 1409.42 731.001Z" fill="#137333" fill-rule="evenodd" fill-opacity="1"/><path d="M2590 795 2597 795 2597 815.4 2590 815.4ZM2590 822.2 2597 822.2 2597 829 2590 829Z" fill="#C5221F" fill-rule="evenodd" fill-opacity="1"/><path d="M2593.5 846C2612.51 846 2628 830.734 2628 812 2628 793.266 2612.51 778 2593.5 778 2574.49 778 2559 793.266 2559 812 2559 830.734 2574.49 846 2593.5 846M2593.5 784.8C2608.71 784.8 2621.1 797.006 2621.1 812 2621.1 826.994 2608.71 839.2 2593.5 839.2 2578.29 839.2 2565.9 826.994 2565.9 812 2565.9 797.006 2578.29 784.8 2593.5 784.8" fill="#C5221F" fill-rule="evenodd" fill-opacity="1"/></g></g></svg>